REM DIRINDEX 1\2,1\3,1\4,1\5,1\6
REM DIRNAME "folder01","folder02","folder03","folder04","folder05","folder06"
TITLE ""
FILE "Disc2Track25.mp3" MP3
  TRACK 01 AUDIO
    TITLE "3:cjc161_02702"
    INDEX 01 00:00:00
  TRACK 02 AUDIO
    TITLE "4:cjc161_02703"
    INDEX 01 00:00:69
  TRACK 03 AUDIO
    TITLE "5:cjc161_02704"
    INDEX 01 00:04:20
  TRACK 04 AUDIO
    TITLE "6:cjc161_02705"
    INDEX 01 00:05:27
  TRACK 05 AUDIO
    TITLE "0:"
    INDEX 01 00:08:57
  TRACK 06 AUDIO
    TITLE "3:cjc161_02706"
    INDEX 01 00:09:11
  TRACK 07 AUDIO
    TITLE "4:cjc161_02707"
    INDEX 01 00:10:54
  TRACK 08 AUDIO
    TITLE "5:cjc161_02708"
    INDEX 01 00:13:31
  TRACK 09 AUDIO
    TITLE "6:cjc161_02709"
    INDEX 01 00:14:71
  TRACK 10 AUDIO
    TITLE "0:"
    INDEX 01 00:18:38
  TRACK 11 AUDIO
    TITLE "3:cjc161_02710"
    INDEX 01 00:18:69
  TRACK 12 AUDIO
    TITLE "4:cjc161_02711"
    INDEX 01 00:20:58
  TRACK 13 AUDIO
    TITLE "5:cjc161_02712"
    INDEX 01 00:22:08
  TRACK 14 AUDIO
    TITLE "6:cjc161_02713"
    INDEX 01 00:23:70
  TRACK 15 AUDIO
    TITLE "0:"
    INDEX 01 00:27:44
  TRACK 16 AUDIO
    TITLE "3:cjc161_02714"
    INDEX 01 00:28:01
  TRACK 17 AUDIO
    TITLE "4:cjc161_02715"
    INDEX 01 00:29:53
  TRACK 18 AUDIO
    TITLE "5:cjc161_02716"
    INDEX 01 00:33:00
  TRACK 19 AUDIO
    TITLE "6:cjc161_02717"
    INDEX 01 00:34:52
  TRACK 20 AUDIO
    TITLE "0:"
    INDEX 01 00:38:58
  TRACK 21 AUDIO
    TITLE "3:cjc161_02718"
    INDEX 01 00:39:14
  TRACK 22 AUDIO
    TITLE "4:cjc161_02719"
    INDEX 01 00:40:22
  TRACK 23 AUDIO
    TITLE "5:cjc161_02720"
    INDEX 01 00:45:58
  TRACK 24 AUDIO
    TITLE "6:cjc161_02721"
    INDEX 01 00:46:65
  TRACK 25 AUDIO
    TITLE "0:"
    INDEX 01 00:50:63
  TRACK 26 AUDIO
    TITLE "3:cjc161_02722"
    INDEX 01 00:51:21
  TRACK 27 AUDIO
    TITLE "4:cjc161_02723"
    INDEX 01 00:52:44
  TRACK 28 AUDIO
    TITLE "5:cjc161_02724"
    INDEX 01 00:53:65
  TRACK 29 AUDIO
    TITLE "6:cjc161_02725"
    INDEX 01 00:55:11
  TRACK 30 AUDIO
    TITLE "0:"
    INDEX 01 00:58:39
  TRACK 31 AUDIO
    TITLE "3:cjc161_02726"
    INDEX 01 00:58:70
  TRACK 32 AUDIO
    TITLE "4:cjc161_02727"
    INDEX 01 01:00:48
  TRACK 33 AUDIO
    TITLE "5:cjc161_02728"
    INDEX 01 01:02:47
  TRACK 34 AUDIO
    TITLE "6:cjc161_02729"
    INDEX 01 01:04:26
  TRACK 35 AUDIO
    TITLE "0:"
    INDEX 01 01:07:44
  TRACK 36 AUDIO
    TITLE "3:cjc161_02730"
    INDEX 01 01:08:00
  TRACK 37 AUDIO
    TITLE "4:cjc161_02731"
    INDEX 01 01:09:11
  TRACK 38 AUDIO
    TITLE "5:cjc161_02732"
    INDEX 01 01:12:27
  TRACK 39 AUDIO
    TITLE "6:cjc161_02733"
    INDEX 01 01:13:37
  TRACK 40 AUDIO
    TITLE "0:"
    INDEX 01 01:18:26
  TRACK 41 AUDIO
    TITLE "3:cjc161_02734"
    INDEX 01 01:18:63
  TRACK 42 AUDIO
    TITLE "4:cjc161_02735"
    INDEX 01 01:20:07
  TRACK 43 AUDIO
    TITLE "5:cjc161_02736"
    INDEX 01 01:22:02
  TRACK 44 AUDIO
    TITLE "0:"
    INDEX 01 01:23:23
  TRACK 45 AUDIO
    TITLE "3:cjc161_02737"
    INDEX 01 01:23:63
  TRACK 46 AUDIO
    TITLE "4:cjc161_02738"
    INDEX 01 01:25:07
  TRACK 47 AUDIO
    TITLE "5:cjc161_02739"
    INDEX 01 01:26:14
  TRACK 48 AUDIO
    TITLE "0:"
    INDEX 01 01:27:35
  TRACK 49 AUDIO
    TITLE "3:cjc161_02740"
    INDEX 01 01:27:64
  TRACK 50 AUDIO
    TITLE "4:cjc161_02741"
    INDEX 01 01:28:70
  TRACK 51 AUDIO
    TITLE "5:cjc161_02742"
    INDEX 01 01:30:66
  TRACK 52 AUDIO
    TITLE "6:cjc161_02743"
    INDEX 01 01:31:72
  TRACK 53 AUDIO
    TITLE "0:"
    INDEX 01 01:34:51
  TRACK 54 AUDIO
    TITLE "3:cjc161_02744"
    INDEX 01 01:35:13
  TRACK 55 AUDIO
    TITLE "4:cjc161_02745"
    INDEX 01 01:36:38
  TRACK 56 AUDIO
    TITLE "5:cjc161_02746"
    INDEX 01 01:37:55
  TRACK 57 AUDIO
    TITLE "0:"
    INDEX 01 01:39:09
  TRACK 58 AUDIO
    TITLE "3:cjc161_02747"
    INDEX 01 01:39:40
  TRACK 59 AUDIO
    TITLE "4:cjc161_02748"
    INDEX 01 01:41:37
  TRACK 60 AUDIO
    TITLE "5:cjc161_02749"
    INDEX 01 01:44:18
  TRACK 61 AUDIO
    TITLE "6:cjc161_02750"
    INDEX 01 01:46:15
  TRACK 62 AUDIO
    TITLE "0:"
    INDEX 01 01:49:52
